<svg width="113" height="171" viewBox="0 0 113 171" fill="none" xmlns="http://www.w3.org/2000/svg">
<path d="M69.6615 84.4354C69.1518 84.4354 68.6422 84.2419 68.2486 83.8548C56.2169 71.9199 42.095 58.4818 32.3664 49.308C31.4761 48.4629 29.4117 46.4371 29.2117 46.2113C25.9796 42.4631 19.954 35.4763 20.8895 27.7993C21.3991 23.6252 23.9022 19.9157 28.3343 16.7739C44.2755 5.47767 74.6548 19.3867 75.9451 19.9802C76.9515 20.4447 77.3837 21.6382 76.9192 22.6446C76.4547 23.651 75.2612 24.0897 74.2548 23.6188C73.9645 23.4833 44.7013 10.0968 30.6568 20.0448C27.186 22.5027 25.2441 25.2703 24.8764 28.2767C24.1603 34.1732 29.3859 40.2568 32.218 43.5469C32.476 43.8114 34.1469 45.4694 35.1146 46.3791C44.8561 55.5722 59.0103 69.0361 71.0679 80.9969C71.8549 81.7775 71.8614 83.0484 71.0808 83.8355C70.6937 84.2419 70.1776 84.4354 69.6615 84.4354Z" fill="white"/>
<path d="M86.6609 15.6707C86.2287 15.6707 85.79 15.5288 85.4223 15.245C85.2352 15.103 66.6618 0.897215 38.1921 4.66479C37.0889 4.80672 36.0825 4.03901 35.9406 2.93583C35.7922 1.83911 36.5664 0.826249 37.6695 0.68432C67.9005 -3.30905 87.106 11.4516 87.906 12.0838C88.7769 12.7677 88.9318 14.0321 88.2479 14.903C87.8479 15.4127 87.2544 15.6707 86.6609 15.6707Z" fill="white"/>
<path d="M31.2375 127.472C30.102 127.472 28.973 127.208 28.1731 126.401C27.4828 125.698 26.8248 124.414 27.6247 122.247C28.4957 119.892 29.3601 117.189 30.1214 114.795C30.9149 112.318 31.5987 110.176 32.1342 108.892C33.818 104.847 36.3663 104.106 40.2242 102.989C40.7338 102.841 41.2822 102.68 41.8693 102.506C46.6626 101.061 68.2487 93.9189 68.4616 93.8479C69.5132 93.4996 70.6486 94.0737 70.997 95.1253C71.3454 96.1769 70.7712 97.3123 69.7196 97.6607C68.8293 97.9574 47.869 104.886 43.024 106.351C42.4176 106.531 41.8563 106.699 41.3338 106.847C37.5727 107.938 36.7469 108.241 35.8308 110.434C35.3599 111.557 34.6696 113.724 33.9341 116.015C33.1793 118.376 32.3213 121.047 31.4504 123.44C32.0632 123.389 32.9342 123.208 33.6309 122.956C33.6761 122.943 33.7148 122.931 33.7599 122.918C34.1148 122.821 69.0616 112.995 79.1063 106.596C84.2351 103.325 89.5381 96.293 89.5381 90.19C89.5381 83.3065 86.4866 80.1518 81.4288 74.9391C81.0288 74.5262 80.6159 74.1004 80.1966 73.6617C72.1131 65.2492 63.5135 57.3334 55.9267 50.3466C51.0947 45.8952 46.9206 42.0502 43.6498 38.7859C37.8823 33.0377 39.5984 28.1347 41.308 26.3413C42.0757 25.5413 43.3466 25.5155 44.1466 26.2767C44.9401 27.0315 44.9723 28.2831 44.2369 29.0831C43.9982 29.3669 42.2563 31.7152 46.4819 35.9344C49.6947 39.1407 53.8429 42.9599 58.6427 47.3855C66.2682 54.411 74.9129 62.3719 83.0868 70.8748C83.5061 71.307 83.9125 71.7263 84.3061 72.1392C89.4671 77.468 93.5444 81.6743 93.5444 90.19C93.5444 98.0413 87.364 106.093 81.2546 109.983C70.8357 116.628 37.0888 126.156 34.8954 126.769C34.0954 127.059 32.6568 127.472 31.2375 127.472Z" fill="white"/>
<path d="M2.86439 163.548C2.00636 163.18 1.32252 162.664 0.825769 162C0.329017 161.335 0.0516106 160.574 0 159.716H2.4257C2.49666 160.419 2.82568 161 3.4192 161.445C4.01272 161.89 4.79333 162.116 5.75458 162.116C6.65132 162.116 7.35451 161.916 7.87062 161.522C8.38672 161.129 8.64478 160.626 8.64478 160.026C8.64478 159.406 8.36737 158.948 7.819 158.645C7.27064 158.342 6.41907 158.045 5.26428 157.755C4.21272 157.477 3.36114 157.2 2.69665 156.916C2.03217 156.632 1.46445 156.213 0.993502 155.652C0.522556 155.09 0.283857 154.355 0.283857 153.445C0.283857 152.723 0.496751 152.058 0.92899 151.458C1.36123 150.858 1.96765 150.381 2.76117 150.026C3.55468 149.671 4.45787 149.497 5.47072 149.497C7.0384 149.497 8.30286 149.891 9.2641 150.684C10.2254 151.478 10.7415 152.561 10.8124 153.936H8.46414C8.41253 153.194 8.11577 152.6 7.57386 152.155C7.03194 151.71 6.30295 151.484 5.39331 151.484C4.54819 151.484 3.87725 151.665 3.38049 152.026C2.88374 152.387 2.63214 152.858 2.63214 153.445C2.63214 153.91 2.78052 154.29 3.08373 154.594C3.38695 154.897 3.76112 155.136 4.21917 155.316C4.67721 155.497 5.30944 155.697 6.11586 155.923C7.12872 156.2 7.95448 156.471 8.59317 156.735C9.23185 157 9.77376 157.4 10.2318 157.935C10.6898 158.471 10.9221 159.168 10.9414 160.026C10.9414 160.8 10.7286 161.497 10.2963 162.116C9.86408 162.735 9.25765 163.219 8.47704 163.574C7.69643 163.929 6.79325 164.103 5.78039 164.103C4.69656 164.103 3.72241 163.916 2.86439 163.548Z" fill="white"/>
<path d="M26.9409 149.729L18.4252 170.528H15.9995L18.7865 163.716L13.0835 149.729H15.6898L20.1283 161.187L24.5152 149.729H26.9409Z" fill="white"/>
<path d="M40.8757 151.026C41.9401 152.065 42.4756 153.568 42.4756 155.529V163.864H40.1531V155.864C40.1531 154.452 39.7983 153.374 39.0951 152.626C38.3919 151.878 37.4242 151.503 36.2049 151.503C34.9662 151.503 33.9792 151.89 33.2502 152.665C32.5212 153.439 32.1535 154.568 32.1535 156.045V163.864H29.8052V149.723H32.1535V151.736C32.618 151.013 33.2502 150.452 34.0501 150.058C34.8501 149.665 35.7339 149.465 36.6952 149.465C38.4112 149.465 39.8047 149.987 40.8757 151.026Z" fill="white"/>
<path d="M49.4045 163.193C48.3271 162.593 47.4884 161.735 46.8756 160.626C46.2627 159.516 45.9595 158.232 45.9595 156.768C45.9595 155.323 46.2756 154.045 46.9014 152.936C47.5271 151.826 48.3852 150.974 49.469 150.381C50.5528 149.787 51.7657 149.491 53.1075 149.491C54.4494 149.491 55.6623 149.787 56.7461 150.381C57.8299 150.974 58.6879 151.82 59.3137 152.923C59.9395 154.026 60.2556 155.303 60.2556 156.768C60.2556 158.232 59.933 159.516 59.2879 160.626C58.6428 161.735 57.7718 162.593 56.6687 163.193C55.5655 163.793 54.3462 164.096 53.0043 164.096C51.6754 164.103 50.4754 163.8 49.4045 163.193ZM55.3784 161.445C56.1203 161.051 56.7138 160.458 57.1719 159.664C57.6299 158.871 57.8557 157.91 57.8557 156.774C57.8557 155.639 57.6299 154.677 57.1848 153.884C56.7396 153.09 56.1526 152.503 55.43 152.116C54.7075 151.729 53.9269 151.536 53.0817 151.536C52.2237 151.536 51.4366 151.729 50.7205 152.116C50.0045 152.503 49.4367 153.09 49.0045 153.884C48.5723 154.677 48.3594 155.639 48.3594 156.774C48.3594 157.929 48.5723 158.897 48.9916 159.69C49.4109 160.484 49.9786 161.071 50.6818 161.458C51.385 161.845 52.1592 162.038 53.0043 162.038C53.8494 162.038 54.6365 161.838 55.3784 161.445Z" fill="white"/>
<path d="M68.2938 150.31C69.2163 149.768 70.2872 149.497 71.5065 149.497C72.7645 149.497 73.9 149.8 74.9257 150.4C75.9515 151 76.7515 151.852 77.3385 152.942C77.9256 154.032 78.2159 155.303 78.2159 156.748C78.2159 158.174 77.9256 159.451 77.3385 160.568C76.7515 161.684 75.9515 162.555 74.9257 163.174C73.9 163.793 72.7645 164.103 71.5065 164.103C70.3001 164.103 69.2421 163.832 68.3196 163.29C67.397 162.748 66.7003 162.071 66.2164 161.264V170.58H63.8682V149.729H66.2164V152.336C66.6809 151.523 67.3712 150.852 68.2938 150.31ZM75.1644 153.955C74.7322 153.161 74.1516 152.561 73.4226 152.149C72.6936 151.736 71.8872 151.529 71.0098 151.529C70.1518 151.529 69.3518 151.742 68.6228 152.161C67.8938 152.581 67.3067 153.194 66.868 153.994C66.4293 154.794 66.21 155.716 66.21 156.768C66.21 157.832 66.4293 158.768 66.868 159.568C67.3067 160.368 67.8938 160.98 68.6228 161.4C69.3518 161.819 70.1518 162.032 71.0098 162.032C71.8872 162.032 72.6936 161.819 73.4226 161.4C74.1516 160.98 74.7322 160.368 75.1644 159.568C75.5967 158.768 75.8096 157.826 75.8096 156.742C75.8096 155.677 75.5967 154.748 75.1644 153.955Z" fill="white"/>
<path d="M83.9191 163.548C83.0611 163.18 82.3772 162.664 81.8805 162C81.3837 161.335 81.1063 160.574 81.0547 159.716H83.4804C83.5513 160.419 83.8804 161 84.4739 161.445C85.0674 161.89 85.848 162.116 86.8093 162.116C87.706 162.116 88.4092 161.916 88.9253 161.522C89.4414 161.129 89.6995 160.626 89.6995 160.026C89.6995 159.406 89.4221 158.948 88.8737 158.645C88.3253 158.342 87.4738 158.045 86.319 157.755C85.2674 157.477 84.4158 157.2 83.7513 156.916C83.0869 156.632 82.5191 156.213 82.0482 155.652C81.5772 155.09 81.3385 154.355 81.3385 153.445C81.3385 152.723 81.5514 152.058 81.9837 151.458C82.4159 150.858 83.0223 150.381 83.8159 150.026C84.6094 149.671 85.5126 149.497 86.5254 149.497C88.0931 149.497 89.3575 149.891 90.3188 150.684C91.28 151.478 91.7961 152.561 91.8671 153.936H89.5188C89.4672 153.194 89.1705 152.6 88.6285 152.155C88.0866 151.71 87.3576 151.484 86.448 151.484C85.6029 151.484 84.9319 151.665 84.4352 152.026C83.9384 152.387 83.6868 152.858 83.6868 153.445C83.6868 153.91 83.8352 154.29 84.1384 154.594C84.4416 154.897 84.8158 155.136 85.2739 155.316C85.7319 155.497 86.3641 155.697 87.1705 155.923C88.1834 156.2 89.0092 156.471 89.6478 156.735C90.2865 157 90.8284 157.4 91.2865 157.935C91.7445 158.471 91.9768 159.168 91.9961 160.026C91.9961 160.8 91.7832 161.497 91.351 162.116C90.9188 162.735 90.3123 163.219 89.5317 163.574C88.7511 163.929 87.8479 164.103 86.8351 164.103C85.7513 164.103 84.7771 163.916 83.9191 163.548Z" fill="white"/>
<path d="M95.8859 146.962C95.5762 146.652 95.4214 146.271 95.4214 145.826C95.4214 145.381 95.5762 145 95.8859 144.691C96.1955 144.381 96.5762 144.226 97.0213 144.226C97.4536 144.226 97.8148 144.381 98.118 144.691C98.4212 145 98.5696 145.381 98.5696 145.826C98.5696 146.271 98.4212 146.652 98.118 146.962C97.8148 147.271 97.4536 147.426 97.0213 147.426C96.5762 147.426 96.1955 147.278 95.8859 146.962ZM98.1567 149.729V163.871H95.8085V149.729H98.1567Z" fill="white"/>
<path d="M104.763 163.548C103.905 163.18 103.221 162.664 102.725 162C102.228 161.335 101.951 160.574 101.899 159.716H104.325C104.396 160.419 104.725 161 105.318 161.445C105.912 161.89 106.692 162.116 107.654 162.116C108.55 162.116 109.253 161.916 109.77 161.522C110.286 161.129 110.544 160.626 110.544 160.026C110.544 159.406 110.266 158.948 109.718 158.645C109.17 158.342 108.318 158.045 107.163 157.755C106.112 157.477 105.26 157.2 104.596 156.916C103.931 156.632 103.363 156.213 102.892 155.652C102.421 155.09 102.183 154.355 102.183 153.445C102.183 152.723 102.396 152.058 102.828 151.458C103.26 150.858 103.867 150.381 104.66 150.026C105.454 149.671 106.357 149.497 107.37 149.497C108.937 149.497 110.202 149.891 111.163 150.684C112.124 151.478 112.64 152.561 112.711 153.936H110.363C110.311 153.194 110.015 152.6 109.473 152.155C108.931 151.71 108.202 151.484 107.292 151.484C106.447 151.484 105.776 151.665 105.279 152.026C104.783 152.387 104.531 152.858 104.531 153.445C104.531 153.91 104.679 154.29 104.983 154.594C105.286 154.897 105.66 155.136 106.118 155.316C106.576 155.497 107.208 155.697 108.015 155.923C109.028 156.2 109.853 156.471 110.492 156.735C111.131 157 111.673 157.4 112.131 157.935C112.589 158.471 112.821 159.168 112.84 160.026C112.84 160.8 112.627 161.497 112.195 162.116C111.763 162.735 111.157 163.219 110.376 163.574C109.595 163.929 108.692 164.103 107.679 164.103C106.595 164.103 105.628 163.916 104.763 163.548Z" fill="white"/>
</svg>
